<?xml version="1.0" encoding="UTF-8" standalone="no"?>

<svg
   xmlns:dc="http://purl.org/dc/elements/1.1/"
   xmlns:cc="http://creativecommons.org/ns#"
   xmlns:rdf="http://www.w3.org/1999/02/22-rdf-syntax-ns#"
   xmlns:svg="http://www.w3.org/2000/svg"
   xmlns="http://www.w3.org/2000/svg"
   xmlns:sodipodi="http://sodipodi.sourceforge.net/DTD/sodipodi-0.dtd"
   xmlns:inkscape="http://www.inkscape.org/namespaces/inkscape"
   width="48pt"
   height="48pt"
   viewBox="0 0 16.933334 16.933333"
   version="1.1"
   id="svg979"
   inkscape:version="0.92.4 (5da689c313, 2019-01-14)"
   sodipodi:docname="22 - Payment Tax.svg"
   inkscape:export-filename="E:\TR Design Studio Creative\Project Design\TR Creative Design\Icon Design\Project Hiring\Icon Icons\003 - Business And Finance\Send\2 - Solid\22 - Payment Tax.png"
   inkscape:export-xdpi="768"
   inkscape:export-ydpi="768">
  <defs
     id="defs973">
    <pattern
       y="0"
       x="0"
       height="6"
       width="6"
       patternUnits="userSpaceOnUse"
       id="EMFhbasepattern" />
    <pattern
       y="0"
       x="0"
       height="6"
       width="6"
       patternUnits="userSpaceOnUse"
       id="EMFhbasepattern-1" />
    <pattern
       y="0"
       x="0"
       height="6"
       width="6"
       patternUnits="userSpaceOnUse"
       id="EMFhbasepattern-9" />
  </defs>
  <sodipodi:namedview
     id="base"
     pagecolor="#ffffff"
     bordercolor="#666666"
     borderopacity="1.0"
     inkscape:pageopacity="0.0"
     inkscape:pageshadow="2"
     inkscape:zoom="8.546875"
     inkscape:cx="32"
     inkscape:cy="32"
     inkscape:document-units="pt"
     inkscape:current-layer="layer1"
     showgrid="false"
     units="pt"
     inkscape:window-width="1366"
     inkscape:window-height="716"
     inkscape:window-x="-8"
     inkscape:window-y="-8"
     inkscape:window-maximized="1"
     inkscape:snap-bbox="true"
     inkscape:bbox-nodes="true"
     inkscape:snap-nodes="false"
     showguides="false">
    <inkscape:grid
       type="xygrid"
       id="grid1526" />
    <sodipodi:guide
       position="0.97013909,15.963209"
       orientation="56.666615,0"
       id="guide1528"
       inkscape:locked="false" />
    <sodipodi:guide
       position="0.97013909,0.97016731"
       orientation="0,56.666667"
       id="guide1530"
       inkscape:locked="false" />
    <sodipodi:guide
       position="15.963195,0.97016731"
       orientation="-56.666615,0"
       id="guide1532"
       inkscape:locked="false" />
    <sodipodi:guide
       position="15.963195,15.963209"
       orientation="0,-56.666667"
       id="guide1534"
       inkscape:locked="false" />
  </sodipodi:namedview>
  <metadata
     id="metadata976">
    <rdf:RDF>
      <cc:Work
         rdf:about="">
        <dc:format>image/svg+xml</dc:format>
        <dc:type
           rdf:resource="http://purl.org/dc/dcmitype/StillImage" />
        <dc:title></dc:title>
      </cc:Work>
    </rdf:RDF>
  </metadata>
  <g
     inkscape:label="Layer 1"
     inkscape:groupmode="layer"
     id="layer1"
     transform="translate(0,-280.06668)">
    <path
       inkscape:connector-curvature="0"
       id="rect1813"
       d="m 4.5409767,281.03683 c -0.4016636,2e-5 -0.7145846,0.31223 -0.7145846,0.71389 v 2.63525 l 0.1979921,-0.0975 c 0.1003773,-0.0501 0.2182297,-0.0501 0.3186005,0 l 0.5563315,0.27677 0.3555497,-0.17916 v -2.63525 c 0,-0.40167 -0.3122242,-0.71393 -0.7138892,-0.7139 z m 1.235363,0 c 0.1417042,0.22519 0.1924154,0.45601 0.1924154,0.71389 v 6.42429 h 0.4454825 c 0.7353892,0 1.3385414,0.60316 1.3385414,1.33854 v 5.08784 h 7.496525 c 0.401674,0 0.71389,-0.31219 0.71389,-0.71387 v -12.1368 c 0,-0.40167 -0.312221,-0.71389 -0.71389,-0.71389 z m 1.2283902,0.71389 a 0.35698021,0.35698021 0 0 1 0.034155,0 h 5.3541641 a 0.35702746,0.35702746 0 1 1 0,0.71387 H 7.0388847 a 0.35743807,0.35743807 0 0 1 -0.034155,-0.71387 z m 6.7819411,0 a 0.35698021,0.35698021 0 0 1 0.03415,0 h 1.072925 a 0.35702746,0.35702746 0 1 1 0,0.71387 h -1.072922 a 0.357438,0.357438 0 0 1 -0.03415,-0.71387 z m -6.7477812,1.78402 h 7.8548652 c 0.1972,7e-4 0.356299,0.16113 0.355549,0.35833 v 3.56805 c 7.5e-4,0.19719 -0.158354,0.35764 -0.355549,0.35834 H 7.0388898 c -0.1971924,-7.2e-4 -0.3562993,-0.16115 -0.35555,-0.35834 v -3.56805 c 0,-0.19526 0.1848493,-0.35833 0.35555,-0.35833 z m 0.3583391,0.71387 v 0.71461 h 0.7138882 v -0.71461 z m 1.4277774,0 v 0.71461 H 10.96458 v -0.71461 z m 2.8534627,0 v 0.71461 h 1.428475 v -0.71461 z m 2.142362,0 v 0.71461 h 0.713889 v -0.71461 z m -6.4236021,1.42848 v 1.42779 h 0.7138882 v -1.42779 z m 1.4277774,0 v 1.42779 H 10.96458 v -1.42779 z m 2.8534627,0 v 1.42779 h 1.428475 v -1.42779 z m 2.142362,0 v 1.42779 h 0.713889 v -1.42779 z m -5.0327741,2.85627 a 0.35698021,0.35698021 0 0 1 0.036949,0 h 6.0687501 a 0.35703421,0.35703421 0 1 1 0,0.71387 H 8.8250063 a 0.35751035,0.35751035 0 0 1 -0.036949,-0.71387 z m -7.1932637,0.35555 c -0.3522438,0 -0.62465339,0.2724 -0.62465339,0.62464 v 5.89167 c 0,0.35225 0.27240959,0.62465 0.62465339,0.62465 h 4.8194444 c 0.3522427,0 0.6246522,-0.2724 0.6246522,-0.62465 v -5.89167 c 0,-0.35224 -0.2724095,-0.62464 -0.6246522,-0.62464 z m 0.4482719,0.71388 h 3.92569 a 0.35698021,0.35698021 0 0 1 0.3555501,0.35834 v 1.42848 a 0.35698021,0.35698021 0 0 1 -0.3555501,0.35554 h -3.92569 a 0.35698021,0.35698021 0 0 1 -0.3583393,-0.35554 v -1.42848 a 0.35698021,0.35698021 0 0 1 0.3583393,-0.35834 z m 12.1521389,0.35346 a 0.35698021,0.35698021 0 0 1 0.303263,0.55842 l -1.428473,2.14236 a 0.35698021,0.35698021 0 1 1 -0.592583,-0.39529 l 1.427776,-2.14236 a 0.35698021,0.35698021 0 0 1 0.290017,-0.16313 z m -1.778445,0.005 c 0.390041,0 0.713888,0.32453 0.713888,0.71458 0,0.39005 -0.323847,0.71388 -0.713888,0.71388 -0.390042,0 -0.71389,-0.32383 -0.71389,-0.71388 0,-0.39005 0.323848,-0.71458 0.71389,-0.71458 z M 2.398615,290.3175 v 0.71387 h 3.211801 v -0.71387 z m 12.136105,1.09313 c 0.390042,0 0.714584,0.32385 0.714584,0.7139 0,0.39004 -0.324542,0.71457 -0.714584,0.71457 -0.390043,0 -0.713889,-0.32453 -0.713889,-0.71457 0,-0.39005 0.323846,-0.7139 0.713889,-0.7139 z m -5.7097137,0.69019 H 10.60903 a 0.35703421,0.35703421 0 1 1 0,0.71389 H 8.8250063 a 0.35703421,0.35703421 0 1 1 0,-0.71389 z m -6.8188917,0.35835 a 0.35698021,0.35698021 0 0 1 0.036949,0 h 1.4277771 a 0.35702746,0.35702746 0 1 1 0,0.71387 H 2.0430639 a 0.35750363,0.35750363 0 0 1 -0.036949,-0.71387 z m 2.5007026,0 a 0.35698021,0.35698021 0 0 1 0.034154,0 h 0.3583381 a 0.35702746,0.35702746 0 1 1 0,0.71387 H 4.5409716 a 0.35743807,0.35743807 0 0 1 -0.034154,-0.71387 z m 4.2812397,0.71387 a 0.35698021,0.35698021 0 0 1 0.036949,0 h 2.8534631 a 0.35729731,0.35729731 0 0 1 0,0.71459 H 8.8250063 a 0.3577746,0.3577746 0 1 1 -0.036949,-0.71459 z m -6.7449918,0.3565 H 2.398615 a 0.35702746,0.35702746 0 1 1 0,0.71389 H 2.0430651 a 0.35702746,0.35702746 0 0 1 0,-0.71389 z m 1.783327,0 H 4.185427 a 0.35702746,0.35702746 0 1 1 0,0.71389 H 3.8263921 a 0.35702746,0.35702746 0 0 1 0,-0.71389 z m 1.7840239,0 h 0.3583391 a 0.35702746,0.35702746 0 1 1 0,0.71389 H 5.610416 a 0.35702746,0.35702746 0 0 1 0,-0.71389 z m -3.6043014,1.07222 a 0.35698021,0.35698021 0 0 1 0.036949,0 h 0.3555511 a 0.35702746,0.35702746 0 0 1 0,0.7139 H 2.0430639 a 0.35750363,0.35750363 0 0 1 -0.036949,-0.7139 z m 1.7861165,0 a 0.35698021,0.35698021 0 0 1 0.034155,0 h 0.359035 a 0.35702746,0.35702746 0 0 1 0,0.7139 h -0.359035 a 0.35743807,0.35743807 0 0 1 -0.034155,-0.7139 z m 1.7840239,0 a 0.35698021,0.35698021 0 0 1 0.034155,0 h 0.3583404 a 0.35702746,0.35702746 0 0 1 0,0.7139 H 5.6104106 a 0.35743807,0.35743807 0 0 1 -0.034156,-0.7139 z"
       style="color:#000000;font-style:normal;font-variant:normal;font-weight:normal;font-stretch:normal;font-size:medium;line-height:normal;font-family:sans-serif;font-variant-ligatures:normal;font-variant-position:normal;font-variant-caps:normal;font-variant-numeric:normal;font-variant-alternates:normal;font-feature-settings:normal;text-indent:0;text-align:start;text-decoration:none;text-decoration-line:none;text-decoration-style:solid;text-decoration-color:#000000;letter-spacing:normal;word-spacing:normal;text-transform:none;writing-mode:lr-tb;direction:ltr;text-orientation:mixed;dominant-baseline:auto;baseline-shift:baseline;text-anchor:start;white-space:normal;shape-padding:0;clip-rule:nonzero;display:inline;overflow:visible;visibility:visible;opacity:1;isolation:auto;mix-blend-mode:normal;color-interpolation:sRGB;color-interpolation-filters:linearRGB;solid-color:#000000;solid-opacity:1;vector-effect:none;fill:#000000;fill-opacity:1;fill-rule:nonzero;stroke:none;stroke-width:0.529167;stroke-linecap:round;stroke-linejoin:round;stroke-miterlimit:1.5;stroke-dasharray:none;stroke-dashoffset:0;stroke-opacity:1;paint-order:markers fill stroke;color-rendering:auto;image-rendering:auto;shape-rendering:auto;text-rendering:auto;enable-background:accumulate" />
  </g>
</svg>
